<mxfile host="app.diagrams.net" modified="2024-04-11T20:44:49.586Z" agent="Mozilla/5.0 (Windows NT 10.0; Win64; x64) AppleWebKit/537.36 (KHTML, like Gecko) Chrome/123.0.0.0 Safari/537.36" etag="WVm8XHPjYXwxos6vXrQ1" version="24.2.3" type="device">
  <diagram name="Page-1" id="Atr-pL4sy05nOoUWLqBn">
    <mxGraphModel dx="1434" dy="780" grid="1" gridSize="10" guides="1" tooltips="1" connect="1" arrows="1" fold="1" page="1" pageScale="1" pageWidth="827" pageHeight="1169" math="0" shadow="0">
      <root>
        <mxCell id="0" />
        <mxCell id="1" parent="0" />
        <mxCell id="tFwOXaVaSBpccI5HxESD-1" value="Init service de recherche SearchService avec les recettes du tableau&amp;nbsp;" style="rounded=1;whiteSpace=wrap;html=1;" parent="1" vertex="1">
          <mxGeometry x="250" y="30" width="190" height="60" as="geometry" />
        </mxCell>
        <mxCell id="tFwOXaVaSBpccI5HxESD-2" value="" style="endArrow=classic;html=1;rounded=0;exitX=0.426;exitY=0.95;exitDx=0;exitDy=0;exitPerimeter=0;" parent="1" edge="1">
          <mxGeometry width="50" height="50" relative="1" as="geometry">
            <mxPoint x="344.50000000000006" y="90" as="sourcePoint" />
            <mxPoint x="344.56" y="163" as="targetPoint" />
            <Array as="points" />
          </mxGeometry>
        </mxCell>
        <mxCell id="tFwOXaVaSBpccI5HxESD-34" value="" style="edgeStyle=orthogonalEdgeStyle;rounded=0;orthogonalLoop=1;jettySize=auto;html=1;" parent="1" source="tFwOXaVaSBpccI5HxESD-3" target="tFwOXaVaSBpccI5HxESD-1" edge="1">
          <mxGeometry relative="1" as="geometry" />
        </mxCell>
        <mxCell id="tFwOXaVaSBpccI5HxESD-3" value="Stocker la variable recipes dans this.recettes" style="rounded=1;whiteSpace=wrap;html=1;" parent="1" vertex="1">
          <mxGeometry x="285" y="160" width="120" height="60" as="geometry" />
        </mxCell>
        <mxCell id="tFwOXaVaSBpccI5HxESD-8" value="" style="endArrow=classic;html=1;rounded=0;" parent="1" target="tFwOXaVaSBpccI5HxESD-9" edge="1">
          <mxGeometry width="50" height="50" relative="1" as="geometry">
            <mxPoint x="405" y="190" as="sourcePoint" />
            <mxPoint x="455" y="190" as="targetPoint" />
          </mxGeometry>
        </mxCell>
        <mxCell id="tFwOXaVaSBpccI5HxESD-9" value="dans la fonction search je verifie si dans chaque recette&amp;nbsp; la recherche correspond au Nom ou Description ou ingredients&amp;nbsp;" style="rounded=1;whiteSpace=wrap;html=1;" parent="1" vertex="1">
          <mxGeometry x="470" y="160" width="180" height="60" as="geometry" />
        </mxCell>
        <mxCell id="tFwOXaVaSBpccI5HxESD-10" value="oui&lt;div&gt;&lt;br&gt;&lt;/div&gt;" style="ellipse;whiteSpace=wrap;html=1;aspect=fixed;" parent="1" vertex="1">
          <mxGeometry x="540" y="350" width="40" height="40" as="geometry" />
        </mxCell>
        <mxCell id="tFwOXaVaSBpccI5HxESD-11" value="" style="endArrow=classic;startArrow=classic;html=1;rounded=0;entryX=0.5;entryY=0;entryDx=0;entryDy=0;exitX=0.5;exitY=1;exitDx=0;exitDy=0;" parent="1" source="tFwOXaVaSBpccI5HxESD-22" target="tFwOXaVaSBpccI5HxESD-10" edge="1">
          <mxGeometry width="50" height="50" relative="1" as="geometry">
            <mxPoint x="550" y="220" as="sourcePoint" />
            <mxPoint x="600" y="170" as="targetPoint" />
          </mxGeometry>
        </mxCell>
        <mxCell id="tFwOXaVaSBpccI5HxESD-12" value="" style="endArrow=classic;html=1;rounded=0;" parent="1" edge="1">
          <mxGeometry width="50" height="50" relative="1" as="geometry">
            <mxPoint x="560" y="650" as="sourcePoint" />
            <mxPoint x="200" y="650" as="targetPoint" />
          </mxGeometry>
        </mxCell>
        <mxCell id="tFwOXaVaSBpccI5HxESD-13" value="" style="endArrow=classic;html=1;rounded=0;" parent="1" source="tFwOXaVaSBpccI5HxESD-15" target="tFwOXaVaSBpccI5HxESD-16" edge="1">
          <mxGeometry width="50" height="50" relative="1" as="geometry">
            <mxPoint x="390" y="430" as="sourcePoint" />
            <mxPoint x="440" y="380" as="targetPoint" />
          </mxGeometry>
        </mxCell>
        <mxCell id="tFwOXaVaSBpccI5HxESD-14" value="" style="endArrow=classic;startArrow=classic;html=1;rounded=0;entryX=0;entryY=0.5;entryDx=0;entryDy=0;" parent="1" target="tFwOXaVaSBpccI5HxESD-1" edge="1">
          <mxGeometry width="50" height="50" relative="1" as="geometry">
            <mxPoint x="200" y="650" as="sourcePoint" />
            <mxPoint x="440" y="380" as="targetPoint" />
            <Array as="points">
              <mxPoint x="200" y="60" />
            </Array>
          </mxGeometry>
        </mxCell>
        <mxCell id="tFwOXaVaSBpccI5HxESD-15" value="&lt;div&gt;non&lt;/div&gt;" style="ellipse;whiteSpace=wrap;html=1;aspect=fixed;" parent="1" vertex="1">
          <mxGeometry x="710" y="170" width="40" height="40" as="geometry" />
        </mxCell>
        <mxCell id="tFwOXaVaSBpccI5HxESD-16" value="Message d&#39;erreur" style="ellipse;whiteSpace=wrap;html=1;" parent="1" vertex="1">
          <mxGeometry x="680" y="600" width="110" height="60" as="geometry" />
        </mxCell>
        <mxCell id="tFwOXaVaSBpccI5HxESD-17" value="" style="endArrow=classic;html=1;rounded=0;entryX=0;entryY=0.5;entryDx=0;entryDy=0;exitX=1;exitY=0.5;exitDx=0;exitDy=0;" parent="1" source="tFwOXaVaSBpccI5HxESD-9" target="tFwOXaVaSBpccI5HxESD-15" edge="1">
          <mxGeometry width="50" height="50" relative="1" as="geometry">
            <mxPoint x="390" y="430" as="sourcePoint" />
            <mxPoint x="440" y="380" as="targetPoint" />
          </mxGeometry>
        </mxCell>
        <mxCell id="tFwOXaVaSBpccI5HxESD-18" value="" style="endArrow=classic;startArrow=classic;html=1;rounded=0;exitX=0.5;exitY=1;exitDx=0;exitDy=0;" parent="1" source="tFwOXaVaSBpccI5HxESD-19" edge="1">
          <mxGeometry width="50" height="50" relative="1" as="geometry">
            <mxPoint x="390" y="430" as="sourcePoint" />
            <mxPoint x="345" y="330" as="targetPoint" />
          </mxGeometry>
        </mxCell>
        <mxCell id="tFwOXaVaSBpccI5HxESD-20" value="" style="endArrow=classic;startArrow=classic;html=1;rounded=0;exitX=0.5;exitY=1;exitDx=0;exitDy=0;" parent="1" source="tFwOXaVaSBpccI5HxESD-3" target="tFwOXaVaSBpccI5HxESD-19" edge="1">
          <mxGeometry width="50" height="50" relative="1" as="geometry">
            <mxPoint x="345" y="220" as="sourcePoint" />
            <mxPoint x="345" y="330" as="targetPoint" />
          </mxGeometry>
        </mxCell>
        <mxCell id="tFwOXaVaSBpccI5HxESD-19" value="fonction search service je verifie pour les filtres sélectionnée si elles sont inclus dans this.recettes" style="rounded=1;whiteSpace=wrap;html=1;" parent="1" vertex="1">
          <mxGeometry x="267.5" y="340" width="155" height="60" as="geometry" />
        </mxCell>
        <mxCell id="tFwOXaVaSBpccI5HxESD-21" value="" style="endArrow=none;html=1;rounded=0;entryX=0.5;entryY=1;entryDx=0;entryDy=0;" parent="1" target="tFwOXaVaSBpccI5HxESD-10" edge="1">
          <mxGeometry width="50" height="50" relative="1" as="geometry">
            <mxPoint x="560" y="650" as="sourcePoint" />
            <mxPoint x="440" y="380" as="targetPoint" />
          </mxGeometry>
        </mxCell>
        <mxCell id="tFwOXaVaSBpccI5HxESD-23" value="" style="endArrow=classic;startArrow=classic;html=1;rounded=0;entryX=0.5;entryY=0;entryDx=0;entryDy=0;exitX=0.5;exitY=1;exitDx=0;exitDy=0;" parent="1" source="tFwOXaVaSBpccI5HxESD-9" target="tFwOXaVaSBpccI5HxESD-22" edge="1">
          <mxGeometry width="50" height="50" relative="1" as="geometry">
            <mxPoint x="560" y="220" as="sourcePoint" />
            <mxPoint x="560" y="350" as="targetPoint" />
          </mxGeometry>
        </mxCell>
        <mxCell id="tFwOXaVaSBpccI5HxESD-22" value="oui&lt;div&gt;&lt;br&gt;&lt;/div&gt;" style="ellipse;whiteSpace=wrap;html=1;aspect=fixed;" parent="1" vertex="1">
          <mxGeometry x="540" y="270" width="40" height="40" as="geometry" />
        </mxCell>
        <mxCell id="tFwOXaVaSBpccI5HxESD-26" value="" style="endArrow=classic;html=1;rounded=0;entryX=0;entryY=0.5;entryDx=0;entryDy=0;exitX=1;exitY=0.5;exitDx=0;exitDy=0;" parent="1" source="tFwOXaVaSBpccI5HxESD-19" target="tFwOXaVaSBpccI5HxESD-10" edge="1">
          <mxGeometry width="50" height="50" relative="1" as="geometry">
            <mxPoint x="460" y="440" as="sourcePoint" />
            <mxPoint x="440" y="380" as="targetPoint" />
          </mxGeometry>
        </mxCell>
        <mxCell id="tFwOXaVaSBpccI5HxESD-28" value="Affichage du resultat final des recettes&amp;nbsp;" style="rounded=0;whiteSpace=wrap;html=1;" parent="1" vertex="1">
          <mxGeometry x="147.5" y="710" width="120" height="60" as="geometry" />
        </mxCell>
        <mxCell id="tFwOXaVaSBpccI5HxESD-30" value="" style="endArrow=classic;html=1;rounded=0;entryX=0.429;entryY=-0.05;entryDx=0;entryDy=0;entryPerimeter=0;" parent="1" target="tFwOXaVaSBpccI5HxESD-28" edge="1">
          <mxGeometry width="50" height="50" relative="1" as="geometry">
            <mxPoint x="200" y="650" as="sourcePoint" />
            <mxPoint x="179.99999999999994" y="720.98" as="targetPoint" />
          </mxGeometry>
        </mxCell>
        <mxCell id="tFwOXaVaSBpccI5HxESD-31" value="" style="endArrow=classic;html=1;rounded=0;" parent="1" target="tFwOXaVaSBpccI5HxESD-32" edge="1">
          <mxGeometry width="50" height="50" relative="1" as="geometry">
            <mxPoint x="560" y="480" as="sourcePoint" />
            <mxPoint x="450" y="480" as="targetPoint" />
          </mxGeometry>
        </mxCell>
        <mxCell id="tFwOXaVaSBpccI5HxESD-32" value="on supprime le filtre sélectionnée" style="rounded=1;whiteSpace=wrap;html=1;" parent="1" vertex="1">
          <mxGeometry x="354" y="450" width="120" height="60" as="geometry" />
        </mxCell>
        <mxCell id="tFwOXaVaSBpccI5HxESD-33" value="" style="endArrow=classic;startArrow=classic;html=1;rounded=0;entryX=0;entryY=0.5;entryDx=0;entryDy=0;" parent="1" target="tFwOXaVaSBpccI5HxESD-19" edge="1">
          <mxGeometry width="50" height="50" relative="1" as="geometry">
            <mxPoint x="200" y="370" as="sourcePoint" />
            <mxPoint x="250" y="330" as="targetPoint" />
          </mxGeometry>
        </mxCell>
        <mxCell id="tFwOXaVaSBpccI5HxESD-35" value="Supprimer doublons avec ensemble set" style="rounded=1;whiteSpace=wrap;html=1;" parent="1" vertex="1">
          <mxGeometry x="354" y="525" width="120" height="60" as="geometry" />
        </mxCell>
        <mxCell id="tFwOXaVaSBpccI5HxESD-36" value="" style="endArrow=classic;html=1;rounded=0;" parent="1" edge="1">
          <mxGeometry width="50" height="50" relative="1" as="geometry">
            <mxPoint x="560" y="554.5" as="sourcePoint" />
            <mxPoint x="474" y="554.5" as="targetPoint" />
          </mxGeometry>
        </mxCell>
        <mxCell id="tFwOXaVaSBpccI5HxESD-40" value="" style="endArrow=classic;startArrow=classic;html=1;rounded=0;entryX=0;entryY=0.5;entryDx=0;entryDy=0;" parent="1" target="tFwOXaVaSBpccI5HxESD-3" edge="1">
          <mxGeometry width="50" height="50" relative="1" as="geometry">
            <mxPoint x="199.5" y="189.5" as="sourcePoint" />
            <mxPoint x="267.5" y="189.5" as="targetPoint" />
          </mxGeometry>
        </mxCell>
      </root>
    </mxGraphModel>
  </diagram>
</mxfile>
